<mxfile host="app.diagrams.net" modified="2024-01-23T03:17:40.688Z" agent="Mozilla/5.0 (Windows NT 10.0; Win64; x64) AppleWebKit/537.36 (KHTML, like Gecko) Chrome/120.0.0.0 Safari/537.36" version="22.1.19" etag="SQ6ik5Mq-xkeTOksCa1e" type="device">
  <diagram id="dwR72SAq_lsFtf5ZG-8a" name="Page-1">
    <mxGraphModel dx="1050" dy="556" grid="1" gridSize="10" guides="1" tooltips="1" connect="1" arrows="1" fold="1" page="1" pageScale="1" pageWidth="850" pageHeight="1100" math="0" shadow="0">
      <root>
        <mxCell id="0" />
        <mxCell id="1" parent="0" />
        <mxCell id="NFdJ-tWN4gz4yGYGR__7-1" value="" style="rounded=0;whiteSpace=wrap;html=1;" vertex="1" parent="1">
          <mxGeometry x="30" y="20" width="780" height="110" as="geometry" />
        </mxCell>
        <mxCell id="NFdJ-tWN4gz4yGYGR__7-2" value="name of the business" style="rounded=0;whiteSpace=wrap;html=1;" vertex="1" parent="1">
          <mxGeometry x="40" y="45" width="280" height="60" as="geometry" />
        </mxCell>
        <mxCell id="NFdJ-tWN4gz4yGYGR__7-3" value="nave bar" style="rounded=0;whiteSpace=wrap;html=1;" vertex="1" parent="1">
          <mxGeometry x="560" y="80" width="230" height="40" as="geometry" />
        </mxCell>
        <mxCell id="NFdJ-tWN4gz4yGYGR__7-4" value="" style="whiteSpace=wrap;html=1;aspect=fixed;" vertex="1" parent="1">
          <mxGeometry x="165" y="190" width="520" height="520" as="geometry" />
        </mxCell>
        <mxCell id="NFdJ-tWN4gz4yGYGR__7-5" value="heading" style="rounded=0;whiteSpace=wrap;html=1;" vertex="1" parent="1">
          <mxGeometry x="270" y="210" width="330" height="60" as="geometry" />
        </mxCell>
        <mxCell id="NFdJ-tWN4gz4yGYGR__7-6" value="form" style="whiteSpace=wrap;html=1;aspect=fixed;" vertex="1" parent="1">
          <mxGeometry x="270" y="300" width="330" height="330" as="geometry" />
        </mxCell>
        <mxCell id="NFdJ-tWN4gz4yGYGR__7-7" value="button" style="rounded=1;whiteSpace=wrap;html=1;" vertex="1" parent="1">
          <mxGeometry x="350" y="660" width="80" height="30" as="geometry" />
        </mxCell>
        <mxCell id="NFdJ-tWN4gz4yGYGR__7-8" value="button" style="rounded=1;whiteSpace=wrap;html=1;" vertex="1" parent="1">
          <mxGeometry x="460" y="660" width="80" height="30" as="geometry" />
        </mxCell>
      </root>
    </mxGraphModel>
  </diagram>
</mxfile>
